<svg xmlns="http://www.w3.org/2000/svg" viewBox="0 0 400 320">

  <!-- FUNDO DECORATIVO -->
  <circle cx="46" cy="272" r="88" fill="#38af47" opacity="0.07"/>
  <circle cx="368" cy="46" r="68" fill="#2e7d32" opacity="0.07"/>
  <circle cx="382" cy="284" r="52" fill="#a5d6a7" opacity="0.1"/>

  <!-- CHÃO -->
  <ellipse cx="200" cy="278" rx="188" ry="14" fill="#E8F5E9" opacity="0.5"/>

  <!-- CASA — corpo -->
  <rect x="24" y="150" width="148" height="122" rx="4" fill="#F1F8E9"/>
  <rect x="155" y="150" width="17" height="122" rx="0" fill="#a5d6a7" opacity="0.18"/>

  <!-- TELHADO -->
  <path d="M14 157 L98 90 L182 157 Z" fill="#2e7d32"/>
  <path d="M14 157 L98 90 L98 100 L24 157 Z" fill="#38af47" opacity="0.28"/>

  <!-- CHAMINÉ -->
  <rect x="126" y="96" width="18" height="30" rx="3" fill="#C4A265"/>
  <rect x="122" y="90" width="26" height="10" rx="4" fill="#A08040"/>

  <!-- JANELA ESQUERDA -->
  <rect x="36" y="168" width="38" height="34" rx="5" fill="#B3E5FC" opacity="0.85"/>
  <rect x="36" y="168" width="38" height="6" rx="3" fill="#81D4FA" opacity="0.5"/>
  <line x1="55" y1="168" x2="55" y2="202" stroke="#81D4FA" stroke-width="2" opacity="0.7"/>
  <line x1="36" y1="185" x2="74" y2="185" stroke="#81D4FA" stroke-width="2" opacity="0.7"/>

  <!-- JANELA DIREITA -->
  <rect x="122" y="168" width="38" height="34" rx="5" fill="#B3E5FC" opacity="0.85"/>
  <rect x="122" y="168" width="38" height="6" rx="3" fill="#81D4FA" opacity="0.5"/>
  <line x1="141" y1="168" x2="141" y2="202" stroke="#81D4FA" stroke-width="2" opacity="0.7"/>
  <line x1="122" y1="185" x2="160" y2="185" stroke="#81D4FA" stroke-width="2" opacity="0.7"/>

  <!-- PORTA -->
  <rect x="64" y="204" width="68" height="68" rx="5" fill="#2e7d32"/>
  <rect x="70" y="209" width="56" height="58" rx="4" fill="#1b5e20" opacity="0.4"/>
  <rect x="74" y="214" width="48" height="28" rx="3" fill="#B3E5FC" opacity="0.22"/>
  <circle cx="126" cy="244" r="5.5" fill="#F59E0B"/>
  <rect x="52" y="270" width="92" height="8" rx="4" fill="#C4A265"/>

  <!-- SINAL WI-FI ACIMA DA CASA -->
  <path d="M64 106 Q98 75 132 106" stroke="#38af47" stroke-width="4.5" fill="none" stroke-linecap="round" opacity="0.9"/>
  <path d="M44 88 Q98 50 152 88" stroke="#38af47" stroke-width="3.2" fill="none" stroke-linecap="round" opacity="0.6"/>
  <path d="M26 70 Q98 26 170 70" stroke="#38af47" stroke-width="2.2" fill="none" stroke-linecap="round" opacity="0.3"/>
  <circle cx="98" cy="118" r="7" fill="#2e7d32"/>
  <circle cx="98" cy="118" r="4" fill="#38af47"/>

  <!-- CAIXA PRESENTE (entregue na porta) -->
  <ellipse cx="220" cy="274" rx="36" ry="8" fill="#2e7d32" opacity="0.12"/>
  <!-- Corpo da caixa -->
  <rect x="192" y="228" width="56" height="46" rx="6" fill="#38af47"/>
  <!-- Tampa da caixa -->
  <rect x="188" y="218" width="64" height="16" rx="6" fill="#2e7d32"/>
  <!-- Fita vertical -->
  <rect x="216" y="218" width="8" height="56" rx="4" fill="#F59E0B"/>
  <!-- Fita horizontal no corpo -->
  <rect x="188" y="244" width="64" height="8" rx="4" fill="#F59E0B"/>
  <!-- Fita horizontal na tampa -->
  <rect x="188" y="218" width="64" height="8" rx="4" fill="#F59E0B" opacity="0.5"/>
  <!-- Laço — alça esquerda -->
  <ellipse cx="208" cy="212" rx="16" ry="11" fill="#F59E0B" transform="rotate(-18, 208, 214)"/>
  <ellipse cx="208" cy="211" rx="11" ry="7.5" fill="#FDE68A" opacity="0.55" transform="rotate(-18, 208, 214)"/>
  <!-- Laço — alça direita -->
  <ellipse cx="232" cy="212" rx="16" ry="11" fill="#F59E0B" transform="rotate(18, 232, 214)"/>
  <ellipse cx="232" cy="211" rx="11" ry="7.5" fill="#FDE68A" opacity="0.55" transform="rotate(18, 232, 214)"/>
  <!-- Nó do laço -->
  <circle cx="220" cy="213" r="8" fill="#D97706"/>
  <!-- Bolinhas decorativas na caixa -->
  <circle cx="206" cy="252" r="4" fill="#2e7d32" opacity="0.3"/>
  <circle cx="234" cy="252" r="4" fill="#2e7d32" opacity="0.3"/>
  <circle cx="206" cy="264" r="4" fill="#2e7d32" opacity="0.22"/>
  <circle cx="234" cy="264" r="4" fill="#2e7d32" opacity="0.22"/>

  <!-- TÉCNICO (direita, caminhando) -->

  <!-- Pernas -->
  <path d="M278 218 Q272 246 268 272" stroke="#1565C0" stroke-width="20" stroke-linecap="round" fill="none" opacity="0.85"/>
  <path d="M296 218 Q302 246 306 272" stroke="#0D47A1" stroke-width="20" stroke-linecap="round" fill="none" opacity="0.75"/>
  <!-- Sapatos -->
  <rect x="256" y="264" width="26" height="11" rx="5.5" fill="#1A0A00"/>
  <rect x="298" y="264" width="26" height="11" rx="5.5" fill="#1A0A00"/>

  <!-- Corpo / uniforme -->
  <path d="M260 175 C255 194 254 208 256 222 L326 222 C328 208 327 194 322 175 C311 164 271 164 260 175 Z" fill="#1565C0"/>
  <!-- Detalhes do uniforme -->
  <path d="M260 175 C264 168 271 164 287 164 C303 164 310 168 314 175 L308 175 C304 170 296 167 287 167 C278 167 270 170 266 175 Z" fill="#38af47" opacity="0.35"/>
  <rect x="264" y="183" width="20" height="15" rx="3" fill="#0D47A1" opacity="0.5"/>
  <rect x="266" y="185" width="16" height="4" rx="2" fill="#38af47" opacity="0.8"/>
  <!-- Cinto -->
  <rect x="254" y="216" width="76" height="11" rx="5.5" fill="#0D47A1"/>
  <rect x="274" y="218" width="20" height="7" rx="2.5" fill="#F59E0B"/>

  <!-- Gola -->
  <path d="M280 175 L287 187 L294 175 L291 170 L283 170 Z" fill="#0D47A1" opacity="0.9"/>
  <!-- Pescoço -->
  <rect x="280" y="162" width="14" height="16" rx="5" fill="#FBBF7A"/>

  <!-- Cabeça -->
  <circle cx="287" cy="143" r="29" fill="#FBBF7A"/>

  <!-- Capacete amarelo -->
  <path d="M260 141 C260 117 287 109 287 109 C287 109 314 117 314 141 C309 135 300 131 287 131 C274 131 265 135 260 141 Z" fill="#F59E0B"/>
  <rect x="255" y="139" width="64" height="9" rx="4.5" fill="#F59E0B"/>
  <rect x="257" y="139" width="60" height="5" rx="2.5" fill="#FDE68A" opacity="0.65"/>

  <!-- Orelhas -->
  <circle cx="259" cy="146" r="6.5" fill="#F5A057"/>
  <circle cx="315" cy="146" r="6.5" fill="#F5A057"/>

  <!-- Rosto — expressão feliz -->
  <ellipse cx="279" cy="147" rx="3.5" ry="4.5" fill="#1C0D00"/>
  <circle cx="280.5" cy="145" r="1.3" fill="#fff" opacity="0.85"/>
  <ellipse cx="295" cy="147" rx="3.5" ry="4.5" fill="#1C0D00"/>
  <circle cx="296.5" cy="145" r="1.3" fill="#fff" opacity="0.85"/>
  <!-- Sobrancelhas levantadas (feliz) -->
  <path d="M275 138 Q279 135 283 138" stroke="#1C0D00" stroke-width="2" fill="none" stroke-linecap="round"/>
  <path d="M291 138 Q295 135 299 138" stroke="#1C0D00" stroke-width="2" fill="none" stroke-linecap="round"/>
  <!-- Nariz -->
  <path d="M284 151 Q287 156 290 151" stroke="#D48A5A" stroke-width="1.3" fill="none" stroke-linecap="round"/>
  <!-- Sorriso largo -->
  <path d="M278 158 Q287 166 296 158" stroke="#1C0D00" stroke-width="2.5" fill="none" stroke-linecap="round"/>
  <!-- Blush -->
  <ellipse cx="273" cy="152" rx="7" ry="4.5" fill="#E88060" opacity="0.2"/>
  <ellipse cx="301" cy="152" rx="7" ry="4.5" fill="#E88060" opacity="0.2"/>

  <!-- Braço esquerdo (aponta para o presente) -->
  <path d="M256 187 Q234 210 224 228" stroke="#FBBF7A" stroke-width="16" stroke-linecap="round" fill="none"/>
  <circle cx="224" cy="228" r="9" fill="#FBBF7A"/>

  <!-- Braço direito (erguido, polegar para cima) -->
  <path d="M322 187 Q346 174 358 162" stroke="#FBBF7A" stroke-width="14" stroke-linecap="round" fill="none"/>
  <circle cx="358" cy="162" r="8" fill="#FBBF7A"/>
  <path d="M354 156 Q358 148 362 152 Q366 148 362 158 L356 164 Z" fill="#FBBF7A"/>

  <!-- BADGE GRÁTIS / ESTRELA (canto superior direito) -->
  <circle cx="358" cy="102" r="30" fill="#FEF9C3" opacity="0.8"/>
  <circle cx="358" cy="102" r="22" fill="#F59E0B" opacity="0.22"/>
  <!-- Estrela 5 pontas -->
  <path d="M358 80 L362.6 93.8 L377 93.4 L366.2 102.2 L369.7 116 L358 108.4 L346.3 116 L349.8 102.2 L339 93.4 L353.4 93.8 Z" fill="#F59E0B"/>
  <path d="M358 80 L362.6 93.8 L358 90 Z" fill="#FDE68A" opacity="0.6"/>
  <!-- Faíscas ao redor do badge -->
  <circle cx="334" cy="80" r="3.5" fill="#F59E0B" opacity="0.6"/>
  <circle cx="382" cy="80" r="3.5" fill="#F59E0B" opacity="0.55"/>
  <circle cx="336" cy="124" r="3" fill="#F59E0B" opacity="0.5"/>
  <circle cx="380" cy="124" r="3" fill="#F59E0B" opacity="0.45"/>

  <!-- PONTOS DECORATIVOS -->
  <circle cx="36" cy="165" r="7" fill="#38af47" opacity="0.12"/>
  <circle cx="22" cy="188" r="4" fill="#38af47" opacity="0.08"/>
  <circle cx="390" cy="158" r="5.5" fill="#F59E0B" opacity="0.18"/>

</svg>
