<?xml version="1.0" encoding="UTF-8"?>
<!DOCTYPE svg PUBLIC "-//W3C//DTD SVG 1.1//EN" "http://www.w3.org/Graphics/SVG/1.1/DTD/svg11.dtd">
<!-- Creator: CorelDRAW 2020 (64 Bit) -->
<svg xmlns="http://www.w3.org/2000/svg" xml:space="preserve" width="24189px" height="24189px" version="1.1" style="shape-rendering:geometricPrecision; text-rendering:geometricPrecision; image-rendering:optimizeQuality; fill-rule:evenodd; clip-rule:evenodd"
viewBox="0 0 24189 24189"
 xmlns:xlink="http://www.w3.org/1999/xlink"
 xmlns:xodm="http://www.corel.com/coreldraw/odm/2003">
 <defs>
  <style type="text/css">
   <![CDATA[
    .fil0 {fill:#787878}
   ]]>
  </style>
 </defs>
 <g id="Camada_x0020_1">
  <metadata id="CorelCorpID_0Corel-Layer"/>
  <path class="fil0" d="M333.49 16382.86l3690.1 0 -0.11 -6224.08c-0.31,-75.08 17.62,-311.03 32.53,-375.84 22.11,-96.11 99.58,-177.4 177.13,-231.24 141.7,-98.35 370.14,-96.17 505.05,15.6 48.06,39.81 89.28,79.28 114.88,140.97 18.95,45.69 32.54,112.58 36.3,170.35 4.8,73.73 15.02,212.78 14.93,290.11 -0.04,33.24 -2.77,69.23 2.07,101.25 9.38,61.97 2.84,134.15 2.84,198.88 0,73.01 4.97,133.63 4.92,201.73l-9.83 3670.42c0,142.1 4.91,268.12 4.91,408.37 157.07,0 302.52,-4.92 462.5,-4.92 155.8,0 311.6,0 467.41,0 155.54,0 302.93,-4.92 462.49,-4.92l2346.9 0c0,-1235.34 -4.92,-2465.29 -4.92,-3704.86 0,-157.97 -4.92,-303.52 -4.92,-457.57l-0.23 -807.13c0.42,-60.12 33.35,-121.65 62.04,-169.21 30.38,-50.37 66.51,-89.22 109.26,-126.91 11.41,-10.06 21.43,-15.56 34.13,-24.9 59.86,-44.04 127.18,-68.28 210.03,-80.27 130.06,-18.82 257.65,18.36 356.59,92.2 90.74,67.71 156.61,169.09 187.68,279.73 11.24,40.05 9.77,52.16 9.77,103.39 -0.08,807.43 19.68,1612.69 19.68,2420.7 0,419.24 11.97,840.73 9.81,1259.59 -0.22,42.42 5.01,68.04 4.95,113.13 -0.19,155.39 -2.12,312.4 -0.2,467.6l5.12 457.38c0,81.84 4.92,147.19 4.92,226.33l4.92 920.06c0,82.31 4.92,147.95 4.92,231.25l-0.29 403.74c-0.48,27.58 -5.41,35.94 15.47,39.07l1401.82 0c77.75,-146.95 164.96,-290.69 241.14,-437.83l296.1 -540.32c19.65,-32.28 34.34,-65.89 54.13,-98.41 38.71,-63.63 70.13,-133.17 107.5,-197.53 74.73,-128.7 142.3,-260.11 214.71,-390.48 53.25,-95.88 199.98,-354.5 242.65,-441.25 41.2,-83.75 94.63,-163.67 136.16,-247.6 43.63,-88.17 112.01,-204.53 160.61,-292.05 63.43,-114.2 121.48,-231.28 188.25,-343.13 10.53,-17.65 18.35,-32.75 28.25,-50.47 65.52,-117.24 147.91,-282.58 213.96,-391.21 48.17,-79.23 87.45,-164.29 134.01,-244.84l242.47 -441.43c33.16,-67.02 74.85,-129.32 108.24,-196.8 66.22,-133.82 149.64,-260.53 216.59,-393.51 17.38,-34.52 35.84,-62.98 52.48,-95.13l107.96 -197.08c18.78,-32.49 35.66,-66.47 54.12,-98.4 46.57,-80.57 85.74,-165.43 134.02,-244.84 48.57,-79.9 85.91,-164.59 133.97,-244.88l108.24 -196.8c57.55,-96.41 108.62,-196.41 161.9,-295.67 21.13,-39.36 98.87,-165.14 106.63,-198.42 -1205.97,0 -2396.69,4.91 -3601.53,4.91 0,-375.57 0,-751.14 0,-1126.71 0,-98.04 -4.93,-179.08 -4.93,-275.52l-4.91 -979.11c0.06,-51.49 -4.94,-84.97 -4.92,-137.76l-4.95 -275.51c-2.33,-43.14 0.02,-93.79 0.02,-137.78l-19.48 -615.22c-0.19,-16.73 -4.7,-117.57 -12.47,-130.21 -2.29,-3.71 -15.45,-6 -34.12,-7.35l-170.09 0 -1126.71 0 -24.02 0c-112.43,0.04 -115.24,0.76 -241.67,14.75 -237.97,26.33 -487.31,73.02 -713.45,132.82 -218.35,57.72 -401.28,147.65 -598.51,247.75 -122.45,62.14 -238.09,134.54 -351.04,209.85 -28.68,19.12 -55.99,36.53 -85.66,57.03 -109.9,75.96 -212.37,160.97 -316.24,244.65l-222.23 200.91c-53.19,42.44 -100.04,112.91 -143.41,141.95 -21.45,-14.36 -49.92,-47.46 -70.11,-67.65 -24.17,-24.16 -44.73,-44.72 -68.89,-68.88 -81.37,-81.38 -161.69,-158.78 -251.25,-230.93l-198.78 -150.54c-210.44,-157.63 -585.74,-341.39 -819.97,-424.83 -249.91,-89.01 -492.17,-160.74 -758.7,-210.56 -318.33,-59.5 -623.34,-92.91 -921.69,-96.32l-99.43 0c-502.24,5.62 -987.55,98.34 -1488.09,297.34 -35.03,13.93 -65.05,28.73 -96.31,41.45 -184.68,75.17 -369.71,185.37 -535.6,295.9 -135.65,90.39 -268.7,193.86 -384.91,308.84l-71.43 66.33c-11.84,11.82 -23.69,22.05 -34.23,34.65 -13.37,16 -17.08,21.74 -32.19,36.7l-64.82 72.94c-102.56,131.82 -124.54,141.1 -238.06,317.91 -55.37,86.24 -97.65,180.66 -138.84,274.45 -87.98,200.29 -150.43,416.51 -200.62,630.89 -31.15,133.04 -35.29,226.98 -35.42,370.97l0 6.9 0 7203.07z"/>
  <path class="fil0" d="M19237.1 14197.69l-512.16 0.19c-21.68,9.71 -40.13,65.14 -51.56,86.83 -177.53,336.83 -349.99,682.31 -527.44,1017.27 -33.79,63.79 -173.2,326.19 -191.5,373.15l-450.68 0 762.3 -1475.24 -519.01 -2.1 196.76 -382.7 1490.31 -1.09 -197.02 383.69zm-1609.03 -0.01l-940.06 0.2c-16.71,3.42 -74.04,128.63 -85.74,150.75 -20.23,38.2 -69.35,124.15 -81.11,160.01l876.57 0.57c-15.86,51.67 -113.87,220.22 -148.21,289.82 -11.05,22.4 -33.07,82.41 -54.74,93.96l-874.35 0.02 -205.61 397.72 979.56 0.65 -196.23 382.29 -1431.61 1.48 961.65 -1860.18 1396.89 -0.96 -197.01 383.67zm-2445.69 1476.74c-64.34,0.84 -382.59,8.56 -420.37,-2.46l-98.43 -1057.74c-3.26,5.71 -11.93,18.65 -16.52,27.84 -5.56,11.13 -10.56,20.66 -16.83,32.48l-484.94 937.04c-9.89,19.23 -20.52,53.51 -40.35,63.55l-414.83 0 961.41 -1860.38 409.43 -0.75 97.91 1082.86c12.95,-13.93 59.23,-107.13 72.1,-133.25 101.26,-205.6 243.43,-473.56 352.52,-680.67 15.53,-29.47 129.83,-264.92 145.1,-268.93l415.68 0 -961.88 1860.41zm-3478.47 -9013.74l0 2824.16 3916.43 0c-5.27,63.32 -64.98,174.26 -91.41,238.24 -16.11,39 -33.55,75.65 -51.28,111.09 -9.4,18.81 -17.86,35.57 -27.94,55.7l-193.46 382.19c-19.14,38.29 -37.48,70.79 -57.33,109.96 -64.3,126.88 -139.1,246.21 -201.79,373.86l-57.4 104.96c-6.69,12.53 -8.02,12.69 -14.71,24.66l-104.59 190.62c-52.01,87.11 -95.47,178.11 -147.6,265.69 -72.05,121.05 -134.89,248.08 -206.63,369.02 -11.34,19.13 -19.99,34.03 -29.96,53.68l-898.63 1586.03c-20.23,36.18 -37.5,69 -58.48,103.9 -11.04,18.37 -19.66,33.98 -30.26,53.37l-444.39 790.57c-9.48,18.69 -19.63,35.86 -30.23,53.41l-89.76 161.16c-20.15,34.96 -39.8,70.14 -60.36,106.93l-87.05 158.96c-9.92,19.16 -20.1,35.99 -29.49,54.15l-347.72 646.14c-73.96,132.13 -155.98,302.32 -222.98,436.32 -63.92,127.83 -166.2,336 -196.81,467.41l8546.27 0 -87.07 -154.02c-29.97,-54.76 -56.01,-109.54 -79.52,-166.49 -103.77,-251.43 -169.81,-498.65 -210.24,-773.78 -16.67,-113.47 -30.39,-224.45 -31.36,-337.65l-5.1 -117.9c0,-234.47 4.11,-416.08 36.51,-647.38 37.36,-266.63 102.28,-529.57 209.63,-774.4 37.66,-85.9 76.89,-165.81 123.06,-245.95 12.54,-21.75 38.01,-52.81 44.09,-78.92l-2740.52 0c17.49,-33.04 36.51,-64.54 54.06,-98.46l55.82 -101.63c18.22,-34.15 36.75,-63.4 54.09,-98.44l82.01 -149.23c78.54,-152.08 170.03,-297.85 247.69,-450.97 10.19,-20.09 18.5,-31.8 27.87,-50.85l164.06 -298.43c10.3,-20.44 18.65,-33 27.88,-50.84 9.55,-18.45 17.89,-32.27 27.83,-50.9 10.55,-19.78 18.27,-31.58 27.94,-50.78l55.74 -101.71c17.77,-35.92 38.25,-67.82 55.75,-101.69l219.76 -400.18c36.71,-68.39 71.95,-135.13 109.63,-200.33l111.78 -203.12c73.01,-136 144.66,-266.04 219.67,-400.26 54.59,-97.69 168.53,-318.13 220.78,-404.07 48.88,-80.4 86.92,-167.47 135.87,-247.91 69.69,-114.54 124.16,-237.93 193.78,-352.35 59.5,-97.8 106,-204.34 165.38,-302.02 39.45,-64.88 71.18,-134.72 109.41,-200.56l662.44 -1207.22c19.57,-35.24 37.53,-66.87 55.63,-101.81l54.12 -98.41c52.34,-101.09 114.18,-199.57 165.64,-301.77 9.48,-18.83 17.33,-29.25 26.31,-47.5 9.37,-19.05 17.67,-30.76 27.86,-50.85 35.91,-70.81 76.25,-132.16 111.5,-203.39 14.93,-30.18 49.86,-73.01 52.52,-104.93l-8369.15 0c-404.14,0 -792.87,4.92 -1195.59,4.92z"/>
  <path class="fil0" d="M21863.37 15812.13c-18.9,-9.25 -359.13,-7.9 -397.92,-2.11 -6.7,12.79 -17.91,28.77 -29.52,36.54l-36.72 -34.43c-14.68,-12.1 -45.19,-52.31 -62.19,-73.23 -19.37,-23.85 -39.03,-52.65 -57.01,-80.75 -25.61,-40.02 -79.45,-134.6 -92.17,-185.52 -7.57,-13.47 -17.09,-41.66 -23.14,-58.41 -7.51,-20.79 -14.5,-42.88 -22.18,-66.38 -14.65,-44.82 -21.92,-93.3 -37.62,-135.97 -22.21,-106.62 -42.24,-220.13 -47.97,-334.57 0.58,-47.06 -4.83,-75 -4.77,-123 0.05,-42.64 -0.06,-85.29 0.03,-127.92 2.1,-116.88 16.61,-227.35 34.01,-339.5l48.53 -202.8c7.16,-25.69 14.77,-43.71 21.03,-67.8 13,-53.39 53.71,-139.46 77.65,-182.94 22.64,-41.13 87.17,-140.93 113.96,-152.49 12.88,-17.07 56.64,-53.6 73.8,-58.18 13.99,9.37 51.89,42.56 59.04,56.26 34.24,6.48 387.36,6.09 403.31,-2.14l-58.79 -137.87c-10.03,-20.54 -23.22,-42.72 -35.44,-62.96l-83.44 -118.29c-22.36,-27.67 -97.61,-110.19 -132.04,-113.96l-851.3 0.11c-32.63,61.67 -113.49,180.06 -150.47,262.81 -8.25,18.48 -11.37,26.57 -20.09,43.88 -109.69,217.85 -185.72,490 -226.57,732.84 -39.92,237.3 -47.96,536.11 -17.07,781.83 15.89,126.37 28.49,189.98 53.81,310.28 23.01,109.31 71.37,262.77 112.92,369.25l71.93 169.15c14.05,28.1 25.33,50.49 39.42,78.67l108.55 191.58c10.27,15.19 18.37,22.93 22.66,41.31l949.58 0 196.19 -413.29z"/>
  <path class="fil0" d="M21960.11 14872.38c-18.51,11.32 -151.73,4.06 -184.69,4.06 -35.3,0 -161.27,7.34 -181.32,-4.06 -90.44,0 -180.88,0 -271.33,0 -91.43,0 -171.11,4.92 -265.84,4.92 5.73,114.44 25.76,227.95 47.97,334.57l458.96 -0.83 388.68 0.24 1254.64 0.6c15.61,67 104.26,144.22 164.41,179.99 234.66,139.57 587.19,-26.65 588.37,-339.56l0 -4.61c-2.67,-398.24 -495.91,-543.6 -721.23,-232.33 -9.74,13.47 -27.92,41.44 -31.55,57.01l-1247.07 0z"/>
  <path class="fil0" d="M21883.52 13676.79c-15.95,8.23 -369.07,8.62 -403.31,2.14 -43.96,-7.42 -97.46,1.56 -132.84,1.92 -26.79,11.56 -91.32,111.36 -113.96,152.49 -23.94,43.48 -64.65,129.55 -77.65,182.94l408.1 -1.61 369.01 0.85 846.26 0.77c23.51,44.41 34.68,66.98 70.1,102.09 98.13,97.24 218.54,152.27 376.49,118.17 175.19,-37.84 311.33,-196.52 311.24,-382.54 -0.16,-333.66 -366.68,-518.09 -634.9,-324.9l-87.16 89.97c-12.88,17.19 -25.58,35.09 -30.85,57.71l-900.53 0z"/>
  <path class="fil0" d="M21932.87 15472.95l-393.62 2.05 -351.41 -2.37c12.72,50.92 66.56,145.5 92.17,185.52 17.98,28.1 37.64,56.9 57.01,80.75 17,20.92 47.51,61.13 62.19,73.23l66.24 -2.11c38.79,-5.79 379.02,-7.14 397.92,2.11l654.99 0c3.59,15.4 21.08,42.2 29.49,54.15l133.03 122.82c122.96,71.35 277.76,66.97 406.74,-11.17 30.72,-18.6 70.45,-52.1 92.19,-80.01 59.77,-76.76 91.5,-146.51 91.35,-253.07 -0.49,-341.16 -366.73,-483.62 -586.51,-350.33 -54.2,32.88 -152.11,117.23 -166.29,178.11l-585.49 0.32z"/>
  <path class="fil0" d="M21957.47 14288.39l-364.09 0.33 -507.18 -1.84c-17.4,112.15 -31.91,222.62 -34.01,339.5l552.54 0c12.85,-7.1 342.21,-7.53 355.54,0l144.8 0c13.57,58.24 102.68,146.5 162.29,177.19 88.78,45.72 184.92,64.34 286.6,40.45 234.21,-55.04 364.13,-305.87 278.66,-531.91 -43.37,-114.69 -148.01,-209.69 -274.73,-241.87 -138.63,-35.21 -305.23,20.58 -385.16,112.1 -19.39,22.22 -60.73,74.79 -67.66,104.54l-147.6 1.51z"/>
  <path class="fil0" d="M21539.25 15475l393.62 -2.05c0,-49.03 7.77,-85.58 9.83,-128.24 1.94,-40.16 2.4,-99.63 9.84,-133.43l-388.68 -0.24c0,27.81 -2.9,39.77 -5.06,64.65 -1.75,20.09 -3.72,44.16 -6.86,66.95 -5.81,42.13 -12.69,89.39 -12.69,132.36z"/>
  <path class="fil0" d="M21593.38 14288.72l364.09 -0.33c0,-22.63 -3.65,-42.55 -4.97,-70.35 -0.79,-16.73 -4.16,-46.75 -6.97,-66.83 -5.53,-39.58 -12.66,-97.1 -12.66,-135.69l-369.01 -0.85c0.35,17.66 6.15,52.16 8.33,67.08 3.66,25.06 4.51,39.73 7.88,65.92 4.62,35.91 13.31,101.72 13.31,141.05z"/>
  <path class="fil0" d="M21594.1 14872.38c20.05,11.4 146.02,4.06 181.32,4.06 32.96,0 166.18,7.26 184.69,-4.06l0.16 -246c-13.33,-7.53 -342.69,-7.1 -355.54,0 -4.59,38.52 -6.61,84.15 -6.43,123 0.2,45.76 -6.84,76.84 -4.2,123z"/>
 </g>
</svg>
